<?xml version="1.0" standalone="no"?>
<!DOCTYPE svg PUBLIC "-//W3C//DTD SVG 20010904//EN"
 "http://www.w3.org/TR/2001/REC-SVG-20010904/DTD/svg10.dtd">
<svg version="1.0" xmlns="http://www.w3.org/2000/svg"
 width="50pt" height="50pt" viewBox="0 0 1024.000000 1024.000000"
 preserveAspectRatio="xMidYMid meet">

<g transform="translate(0.000000,1024.000000) scale(0.100000,-0.100000)"
fill="#2f4f4f" stroke="none">
<path d="M4559 8637 c-40 -27 -36 -17 -146 -396 -60 -208 -95 -313 -110 -332
-16 -18 -49 -35 -109 -53 -107 -34 -267 -102 -399 -169 -149 -77 -141 -78
-420 75 -126 70 -255 140 -285 157 -69 38 -97 39 -146 2 -37 -28 -530 -521
-662 -663 -95 -101 -101 -78 132 -503 69 -126 129 -244 132 -262 5 -25 -5 -55
-44 -140 -27 -59 -66 -155 -87 -213 -21 -58 -47 -132 -59 -165 -16 -43 -30
-64 -52 -77 -17 -10 -165 -56 -330 -103 -164 -47 -313 -92 -330 -101 -18 -9
-37 -27 -43 -40 -8 -17 -11 -183 -11 -544 l0 -519 23 -25 c17 -20 71 -40 262
-96 437 -130 432 -128 454 -156 11 -14 34 -69 52 -122 17 -53 63 -170 101
-260 52 -121 68 -170 63 -190 -3 -15 -67 -140 -142 -277 -181 -332 -182 -334
-183 -378 0 -36 13 -51 289 -335 446 -460 459 -470 519 -455 15 3 50 19 77 33
456 245 525 280 553 280 18 0 106 -38 224 -95 106 -53 237 -109 291 -126 107
-34 150 -66 162 -121 10 -44 118 -428 156 -551 46 -149 -11 -137 622 -137 579
0 571 -1 602 59 8 16 53 166 101 333 47 166 93 315 100 330 20 39 45 53 169
93 61 20 191 76 290 126 193 95 226 103 280 71 55 -34 484 -263 530 -283 38
-17 51 -18 80 -9 24 8 132 112 387 371 194 199 358 373 365 389 8 18 9 38 4
57 -5 16 -64 130 -132 254 -68 123 -141 259 -163 302 l-40 78 16 47 c9 26 39
97 66 157 27 61 67 162 88 225 24 75 47 124 63 140 20 20 80 42 256 94 414
123 427 127 451 151 l24 24 0 529 0 529 -24 26 c-26 28 -34 31 -393 132 -128
36 -251 72 -273 81 -47 19 -55 33 -100 169 -18 55 -64 171 -102 257 -68 155
-68 157 -55 196 8 22 74 149 148 283 73 134 144 265 157 291 45 88 54 76 -346
480 -196 198 -369 366 -384 374 -15 8 -36 14 -47 14 -11 0 -152 -72 -314 -160
-198 -108 -303 -160 -324 -160 -17 0 -84 27 -154 61 -152 75 -277 127 -389
163 -47 15 -95 37 -108 49 -24 23 -42 76 -147 447 -37 129 -74 246 -82 258
-32 51 -43 52 -601 52 l-519 0 -34 -23z m454 -1533 c200 -99 390 -301 506
-536 106 -215 150 -401 158 -659 6 -202 -3 -294 -49 -465 -27 -101 -32 -137
-33 -239 0 -105 3 -127 23 -171 16 -35 34 -57 55 -69 30 -16 36 -16 70 -1 84
34 204 148 286 269 54 80 119 227 141 321 25 104 37 256 30 384 -3 50 -1 92 4
92 16 0 178 -165 236 -240 211 -276 310 -555 310 -870 0 -714 -529 -1336
-1276 -1502 -87 -19 -129 -22 -344 -22 -273 -1 -337 9 -545 78 -537 180 -948
633 -1054 1162 -72 360 -39 733 96 1069 110 275 307 539 522 701 47 35 89 64
92 64 3 0 9 -53 12 -117 7 -126 30 -283 48 -330 39 -104 111 -84 268 76 177
181 293 385 336 586 29 137 18 394 -20 456 -13 21 49 3 128 -37z"/>
</g>
</svg>
