<?xml version="1.0" standalone="no"?>
<!DOCTYPE svg PUBLIC "-//W3C//DTD SVG 20010904//EN"
 "http://www.w3.org/TR/2001/REC-SVG-20010904/DTD/svg10.dtd">
<svg version="1.0" xmlns="http://www.w3.org/2000/svg"
 width="50pt" height="50pt" viewBox="0 0 1024.000000 1024.000000"
 preserveAspectRatio="xMidYMid meet">

<g transform="translate(0.000000,1024.000000) scale(0.100000,-0.100000)"
fill="#2f4f4f" stroke="none">
<path d="M6462 9143 c-22 -22 -37 -62 -71 -185 -24 -86 -49 -162 -55 -168 -7
-5 -60 -22 -117 -36 -57 -15 -148 -44 -202 -65 -53 -22 -108 -39 -121 -39 -23
0 -83 40 -236 158 -49 37 -91 62 -106 62 -22 0 -135 -95 -383 -326 -77 -72
-76 -83 32 -263 48 -79 87 -152 87 -162 0 -11 -22 -58 -50 -106 -27 -47 -63
-120 -80 -162 -46 -114 -50 -119 -84 -127 -17 -4 -107 -19 -199 -34 -98 -16
-174 -33 -182 -41 -10 -10 -20 -97 -36 -292 l-22 -278 24 -25 c17 -17 77 -42
185 -77 87 -29 167 -58 177 -63 12 -7 30 -51 53 -134 19 -68 49 -159 66 -201
19 -49 28 -87 24 -101 -3 -13 -53 -84 -111 -158 -58 -74 -105 -143 -105 -153
0 -25 24 -68 50 -92 13 -11 84 -94 158 -185 75 -91 145 -173 156 -182 34 -29
65 -21 160 41 50 32 123 75 163 96 l72 37 103 -55 c57 -30 140 -69 186 -87 61
-24 86 -40 96 -59 7 -14 23 -91 35 -171 12 -80 25 -158 29 -174 13 -55 38 -63
277 -85 271 -26 279 -26 303 -1 11 12 39 93 67 190 26 93 54 175 64 183 9 8
59 24 111 37 52 12 133 35 180 51 47 16 94 29 106 29 20 0 106 -67 222 -172
60 -54 90 -65 123 -47 51 27 437 358 443 381 5 17 -13 63 -79 191 -47 92 -85
172 -85 178 0 6 23 49 51 95 27 46 68 123 90 171 60 130 61 132 78 138 9 2 93
16 186 30 125 19 175 31 188 44 15 15 21 56 37 242 11 123 22 245 25 271 5 38
2 51 -13 66 -11 11 -90 43 -176 72 -87 29 -168 62 -181 74 -17 15 -32 53 -55
139 -17 64 -44 151 -60 192 -17 43 -27 82 -23 92 4 10 49 72 101 137 115 144
127 165 119 197 -7 26 -230 310 -308 391 -31 33 -53 48 -71 48 -14 0 -94 -34
-177 -75 -84 -41 -161 -75 -173 -75 -11 0 -46 15 -77 34 -71 43 -202 108 -264
131 -26 10 -52 26 -58 36 -5 10 -23 96 -39 190 -22 133 -34 177 -49 192 -17
18 -47 23 -208 37 -382 35 -340 35 -371 3z m309 -959 c642 -122 996 -811 719
-1401 -73 -157 -201 -311 -334 -402 -132 -91 -315 -157 -474 -169 -474 -38
-875 242 -1018 713 -26 84 -28 103 -28 270 -1 158 2 190 22 265 47 170 128
314 249 441 224 235 552 342 864 283z"/>
<path d="M2750 7454 c-388 -84 -902 -196 -1143 -248 -241 -53 -454 -103 -473
-112 -46 -22 -74 -67 -74 -119 0 -42 23 -166 164 -905 47 -245 119 -632 161
-860 42 -228 99 -534 126 -680 28 -146 93 -490 145 -765 51 -275 99 -512 105
-528 15 -36 61 -68 108 -74 38 -5 587 111 2294 487 581 127 816 183 835 197
58 43 58 45 -33 553 -403 2248 -415 2313 -432 2352 -19 45 -76 104 -203 211
-52 44 -231 200 -398 346 -167 146 -318 274 -335 284 -20 11 -51 17 -87 16
-30 0 -371 -70 -760 -155z m939 -870 c41 -35 43 -84 4 -123 -24 -23 -58 -33
-263 -79 -1231 -272 -1464 -322 -1480 -317 -34 11 -64 54 -63 92 2 74 -5 71
568 197 286 63 662 146 835 184 173 39 327 71 342 71 15 1 40 -10 57 -25z
m302 -653 c38 -38 39 -80 2 -121 -27 -29 -51 -35 -955 -235 -605 -134 -936
-203 -953 -199 -33 8 -65 50 -65 85 0 17 11 41 28 59 26 29 52 35 942 234 503
112 928 204 943 205 19 1 38 -9 58 -28z m137 -697 c36 -41 28 -95 -19 -131
-23 -19 -1867 -424 -1896 -417 -30 8 -63 50 -63 80 0 34 19 70 44 84 38 20
1849 419 1881 414 17 -2 40 -15 53 -30z m123 -690 c39 -35 32 -108 -13 -138
-20 -13 -512 -123 -1654 -370 -227 -49 -246 -50 -278 -4 -24 34 -20 74 12 108
26 29 50 34 937 229 549 121 923 198 944 196 18 -2 42 -12 52 -21z"/>
<path d="M5007 5423 c-3 -5 56 -348 130 -763 104 -590 132 -766 128 -805 -12
-99 -84 -189 -177 -220 -24 -8 -227 -55 -453 -104 -225 -49 -637 -139 -915
-200 -278 -61 -700 -153 -938 -205 -377 -81 -437 -96 -458 -118 -19 -18 -30
-51 -49 -141 -33 -157 -33 -179 7 -222 l33 -36 1075 -234 c591 -128 1220 -265
1396 -304 177 -39 339 -71 361 -71 41 0 76 19 93 50 6 11 30 115 55 232 24
117 132 625 240 1128 268 1250 365 1715 365 1750 0 18 -11 42 -28 61 -27 30
-38 33 -422 115 -217 46 -405 86 -417 89 -12 3 -24 2 -26 -2z"/>
<path d="M7798 5323 c-8 -10 -22 -51 -29 -91 -7 -40 -17 -79 -23 -86 -12 -15
-172 -75 -221 -83 -25 -4 -43 4 -91 40 -91 67 -101 71 -127 53 -12 -8 -66 -57
-121 -108 -74 -70 -98 -99 -98 -118 0 -14 21 -60 47 -103 l47 -78 -35 -77
c-19 -42 -38 -87 -41 -99 -5 -17 -19 -24 -64 -33 -150 -30 -156 -32 -163 -68
-4 -18 -10 -88 -14 -155 -5 -97 -4 -125 7 -134 7 -6 52 -22 99 -37 48 -14 92
-33 100 -42 11 -13 69 -176 69 -196 0 -3 -25 -39 -55 -79 -30 -40 -55 -83 -55
-96 0 -25 202 -263 223 -263 7 0 50 23 97 50 47 28 89 50 93 50 5 0 55 -22
112 -50 114 -54 103 -39 121 -157 8 -60 24 -101 40 -107 25 -9 259 -19 288
-12 30 7 45 35 76 141 l20 70 98 33 c145 50 137 51 215 -13 38 -30 75 -55 84
-55 17 0 249 204 257 227 6 16 -9 49 -60 129 -19 29 -34 59 -34 66 0 7 19 55
42 105 46 103 44 101 168 124 36 6 71 17 78 24 17 15 29 292 14 314 -5 7 -51
24 -102 37 -51 13 -97 27 -101 31 -8 9 -69 189 -69 205 0 5 25 44 55 85 30 42
55 83 55 93 0 21 -173 235 -198 245 -10 4 -48 -9 -97 -34 -44 -22 -87 -42 -95
-44 -8 -2 -55 16 -104 40 -49 23 -95 43 -102 43 -15 0 -19 12 -39 115 -8 43
-22 86 -30 95 -12 12 -47 16 -168 18 -138 3 -154 2 -169 -15z m273 -533 c160
-49 300 -189 349 -348 29 -94 27 -235 -4 -325 -46 -129 -133 -230 -253 -294
-149 -80 -315 -82 -473 -6 -73 35 -198 160 -234 234 -103 212 -64 451 99 614
61 61 156 116 231 134 73 17 217 13 285 -9z"/>
</g>
</svg>
