<svg xmlns="http://www.w3.org/2000/svg" width="150pt" height="150pt" viewBox="0 0 1024.000000 1024.000000"> 
  <path fill="#2f4f4f" d="M512 64c16 0 32 1 48 3l24 86 44 18 70-35 69 69-35 70 18 44 86 24c2 16 3 32 3 48s-1 32-3 48l-86 24-18 44 35 70-69 69-70-35-44 18-24 86c-16 2-32 3-48 3s-32-1-48-3l-24-86-44-18-70 35-69-69 35-70-18-44-86-24c-2-16-3-32-3-48s1-32 3-48l86-24 18-44-35-70 69-69 70 35 44-18 24-86c16-2 32-3 48-3z"/>    
  <path fill="#E07040" d="M500 168c14 40 12 88-20 128-32 40-20-60-28-48-80 56-108 160-60 240 44 72 140 96 212 44s92-148 32-228c-12-16-20-20-20-20s0 28-4 48c-4 20-16 52-44 68-28-8 4-64-4-112-12-72-60-120-96-124z"/>
</svg>
